<svg xmlns="http://www.w3.org/2000/svg" viewBox="0 0 64 64" role="img" aria-label="CleverKids logo">
  <defs>
    <linearGradient id="ck-grad" x1="0%" y1="0%" x2="100%" y2="100%">
      <stop offset="0%" stop-color="#7c4dff" />
      <stop offset="100%" stop-color="#2563eb" />
    </linearGradient>
  </defs>
  <rect width="64" height="64" rx="14" fill="url(#ck-grad)" />
  <path
    d="M39.5 19.5c-4.4 0-8 3.6-8 8v9c0 4.4 3.6 8 8 8 3.2 0 5.8-1.8 7.1-4.4l-4.7-2.2c-.5 1.4-1.5 2.1-2.7 2.1-1.9 0-3.3-1.5-3.3-3.4v-9c0-1.9 1.4-3.4 3.3-3.4 1.2 0 2.2.7 2.7 2.1l4.7-2.2c-1.3-2.6-3.9-4.4-7.1-4.4z"
    fill="#fff"
  />
  <path
    d="M24.5 19.5c-4.4 0-8 3.6-8 8v9c0 4.4 3.6 8 8 8 2.9 0 5.4-1.5 6.8-3.8l-4.5-2.5c-.6 1.1-1.4 1.7-2.3 1.7-1.8 0-3.3-1.5-3.3-3.4v-9c0-1.9 1.5-3.4 3.3-3.4.9 0 1.7.5 2.3 1.6l4.5-2.5c-1.4-2.3-3.9-3.7-6.8-3.7z"
    fill="#fff"
    opacity="0.88"
  />
</svg>
